<svg width="24" height="24" viewBox="0 0 24 24" fill="none" xmlns="http://www.w3.org/2000/svg">
<path fill-rule="evenodd" clip-rule="evenodd" d="M22.3613 19.2074C21.8931 15.6367 20.814 7.4064 20.3948 4.20744C20.2479 3.0876 19.2934 2.25 18.1637 2.25C15.3598 2.25 8.82532 2.25 6.0214 2.25C4.89196 2.25 3.93748 3.0876 3.7906 4.20744C3.37108 7.4064 2.29204 15.6367 1.8238 19.2074C1.73956 19.8497 1.93636 20.4972 2.36356 20.9839C2.79076 21.4709 3.40708 21.75 4.05484 21.75H20.1305C20.7783 21.75 21.3946 21.4709 21.8218 20.9839C22.249 20.4972 22.4456 19.8497 22.3613 19.2074ZM7.59004 6.00096C7.59004 8.48448 9.60628 10.501 12.09 10.501C14.5736 10.501 16.59 8.48448 16.59 6.00096C16.59 5.58696 16.2538 5.25096 15.84 5.25096C15.426 5.25096 15.09 5.58696 15.09 6.00096C15.09 7.65672 13.7458 9.00096 12.09 9.00096C10.4343 9.00096 9.09004 7.65672 9.09004 6.00096C9.09004 5.58696 8.7538 5.25096 8.34004 5.25096C7.92604 5.25096 7.59004 5.58696 7.59004 6.00096Z" fill="#294037"/>
</svg>
