<svg width="19" height="23" viewBox="0 0 19 23" fill="none" xmlns="http://www.w3.org/2000/svg">
<path d="M9.35302 7.47042e-09C8.16107 -5.93276e-05 6.99587 0.353341 6.00477 1.01551C5.01367 1.67768 4.24119 2.61888 3.785 3.72008C3.32882 4.82128 3.20943 6.03303 3.44194 7.20209C3.67444 8.37114 4.24839 9.445 5.0912 10.2879C5.93402 11.1307 7.00785 11.7047 8.17689 11.9373C9.34594 12.1698 10.5577 12.0505 11.6589 11.5944C12.7601 11.1383 13.7014 10.3658 14.3636 9.37475C15.0258 8.38369 15.3793 7.2185 15.3793 6.02655C15.3793 4.42826 14.7444 2.89543 13.6142 1.76524C12.4841 0.635053 10.9513 7.95698e-05 9.35302 7.47042e-09ZM8.88116 5.59984H9.80767C10.2229 5.59945 10.6213 5.76403 10.9152 6.05736C11.2091 6.3507 11.3744 6.74877 11.3748 7.164C11.3751 7.57923 11.2106 7.97761 10.9172 8.27149C10.6239 8.56538 10.2258 8.7307 9.8106 8.73109V9.50243C9.81224 9.56992 9.80037 9.63707 9.77567 9.69991C9.75098 9.76275 9.71396 9.82002 9.6668 9.86834C9.61964 9.91666 9.5633 9.95506 9.50108 9.98127C9.43885 10.0075 9.37202 10.021 9.3045 10.021C9.23698 10.021 9.17014 10.0075 9.10792 9.98127C9.0457 9.95506 8.98935 9.91666 8.9422 9.86834C8.89504 9.82002 8.85802 9.76275 8.83333 9.69991C8.80863 9.63707 8.79676 9.56992 8.7984 9.50243V8.73127H7.74225C7.60798 8.73127 7.47922 8.67794 7.38428 8.583C7.28934 8.48806 7.236 8.35929 7.236 8.22503C7.236 8.09076 7.28934 7.96199 7.38428 7.86705C7.47922 7.77211 7.60798 7.71878 7.74225 7.71878H9.80767C9.88085 7.71963 9.95348 7.70595 10.0213 7.67853C10.0892 7.65112 10.1509 7.61051 10.203 7.55907C10.255 7.50762 10.2963 7.44635 10.3246 7.37882C10.3528 7.31129 10.3673 7.23883 10.3673 7.16565C10.3673 7.09247 10.3528 7.02001 10.3246 6.95248C10.2963 6.88494 10.255 6.82368 10.203 6.77223C10.1509 6.72079 10.0892 6.68018 10.0213 6.65277C9.95348 6.62535 9.88085 6.61167 9.80767 6.61252H8.88116C8.45221 6.61347 8.03991 6.44652 7.73246 6.14739C7.42502 5.84826 7.24683 5.44069 7.23602 5.01187C7.2252 4.58305 7.38262 4.16702 7.6746 3.85278C7.96658 3.53853 8.36994 3.35101 8.7984 3.33034V2.55075C8.79676 2.48325 8.80863 2.41611 8.83333 2.35326C8.85802 2.29042 8.89504 2.23316 8.9422 2.18484C8.98935 2.13652 9.0457 2.09812 9.10792 2.0719C9.17014 2.04568 9.23698 2.03218 9.3045 2.03218C9.37202 2.03218 9.43885 2.04568 9.50108 2.0719C9.5633 2.09812 9.61964 2.13652 9.6668 2.18484C9.71396 2.23316 9.75098 2.29042 9.77567 2.35326C9.80037 2.41611 9.81224 2.48325 9.8106 2.55075V3.32179H10.9638C11.0981 3.32179 11.2268 3.37512 11.3218 3.47006C11.4167 3.565 11.47 3.69377 11.47 3.82804C11.47 3.9623 11.4167 4.09107 11.3218 4.18601C11.2268 4.28095 11.0981 4.33429 10.9638 4.33429H8.88116C8.71335 4.33429 8.55241 4.40095 8.43375 4.51961C8.31509 4.63827 8.24842 4.79921 8.24842 4.96703C8.24842 5.13484 8.31509 5.29578 8.43375 5.41444C8.55241 5.5331 8.71335 5.59984 8.88116 5.59984Z" fill="black"/>
<path d="M2.85049 13.3086H0.391313C0.339908 13.3086 0.289005 13.3187 0.241515 13.3384C0.194024 13.3581 0.150876 13.3869 0.114536 13.4233C0.0781954 13.4596 0.0493756 13.5028 0.0297231 13.5503C0.0100705 13.5978 -2.94957e-05 13.6487 6.46995e-08 13.7001V22.093C1.00097e-05 22.1968 0.0412418 22.2963 0.114626 22.3697C0.18801 22.4431 0.287537 22.4843 0.391313 22.4843H2.85049C3.07667 22.4842 3.29358 22.3944 3.45351 22.2344C3.61343 22.0745 3.70327 21.8575 3.70327 21.6313V14.1613C3.70323 13.9352 3.61336 13.7183 3.45344 13.5584C3.29352 13.3985 3.07664 13.3086 2.85049 13.3086Z" fill="black"/>
<path d="M18.3083 14.2943C18.1783 14.0964 18.0011 13.9339 17.7926 13.8216C17.5841 13.7093 17.3509 13.6506 17.1141 13.6509H16.1504C15.7368 13.65 15.3325 13.7724 14.9888 14.0023C14.6451 14.2323 14.3777 14.5594 14.2208 14.942C14.1276 15.1644 13.9978 15.3696 13.8367 15.549C13.563 15.9693 13.1926 16.3179 12.7566 16.5658C12.3206 16.8137 11.8315 16.9535 11.3304 16.9737L8.47576 16.9739C8.34149 16.9739 8.21272 16.9205 8.11778 16.8256C8.02284 16.7307 7.96951 16.6019 7.96951 16.4676C7.96951 16.3334 8.02284 16.2046 8.11778 16.1097C8.21272 16.0147 8.34149 15.9614 8.47576 15.9614H11.3168C11.6819 15.952 12.0365 15.8379 12.3385 15.6327V15.6155C12.3395 15.3579 12.2896 15.1026 12.1917 14.8643C12.0938 14.626 11.9498 14.4094 11.768 14.2268C11.5862 14.0443 11.3702 13.8995 11.1322 13.8006C10.8943 13.7018 10.6392 13.6509 10.3816 13.6509H8.28687C7.9041 13.6498 7.5249 13.7244 7.17112 13.8705C6.81733 14.0166 6.49595 14.2313 6.22549 14.5021L6.17202 14.5554C5.77567 14.9512 5.26674 15.2148 4.71484 15.3102V20.902H12.3541C13.4868 20.9028 14.5948 20.571 15.5407 19.948C16.4866 19.3249 17.2288 18.438 17.6754 17.397L18.4279 15.6454C18.5218 15.428 18.56 15.1906 18.5391 14.9547C18.5182 14.7189 18.4389 14.4919 18.3083 14.2943Z" fill="black"/>
</svg>
