<svg width="64" height="64" viewBox="0 0 64 64" fill="none" xmlns="http://www.w3.org/2000/svg">
<g filter="url(#filter0_d_164_1150)">
<rect x="8" y="5" width="48" height="48" rx="24" fill="white"/>
<path d="M31.9365 24.0688C28.9736 24.0688 26.5186 26.4815 26.5186 29.4868C26.5186 32.4921 28.9313 34.9048 31.9365 34.9048C34.9418 34.9048 37.3545 32.4498 37.3545 29.4868C37.3545 26.5239 34.8995 24.0688 31.9365 24.0688ZM31.9365 32.9577C30.0318 32.9577 28.4656 31.3916 28.4656 29.4868C28.4656 27.5821 30.0318 26.0159 31.9365 26.0159C33.8413 26.0159 35.4074 27.5821 35.4074 29.4868C35.4074 31.3916 33.8413 32.9577 31.9365 32.9577Z" fill="#294037"/>
<path d="M37.5664 25.1694C38.2443 25.1694 38.7939 24.6198 38.7939 23.9419C38.7939 23.2639 38.2443 22.7144 37.5664 22.7144C36.8884 22.7144 36.3389 23.2639 36.3389 23.9419C36.3389 24.6198 36.8884 25.1694 37.5664 25.1694Z" fill="#294037"/>
<path d="M40.741 20.7672C39.6405 19.6243 38.0744 19.0317 36.2966 19.0317H27.577C23.8945 19.0317 21.4395 21.4868 21.4395 25.1693V33.8466C21.4395 35.6667 22.032 37.2328 23.2172 38.3757C24.3601 39.4762 25.8839 40.0264 27.6193 40.0264H36.2543C38.0744 40.0264 39.5982 39.4339 40.6987 38.3757C41.8416 37.2751 42.4342 35.709 42.4342 33.8889V25.1693C42.4342 23.3915 41.8416 21.8677 40.741 20.7672ZM40.5717 33.8889C40.5717 35.2011 40.1061 36.2593 39.3442 36.9788C38.5823 37.6984 37.5241 38.0794 36.2543 38.0794H27.6193C26.3495 38.0794 25.2913 37.6984 24.5294 36.9788C23.7675 36.2169 23.3865 35.1587 23.3865 33.8466V25.1693C23.3865 23.8995 23.7675 22.8413 24.5294 22.0794C25.249 21.3598 26.3495 20.9788 27.6193 20.9788H36.3389C37.6088 20.9788 38.667 21.3598 39.4289 22.1217C40.1484 22.8836 40.5717 23.9418 40.5717 25.1693V33.8889Z" fill="#294037"/>
</g>
<defs>
<filter id="filter0_d_164_1150" x="0" y="0" width="64" height="64" filterUnits="userSpaceOnUse" color-interpolation-filters="sRGB">
<feFlood flood-opacity="0" result="BackgroundImageFix"/>
<feColorMatrix in="SourceAlpha" type="matrix" values="0 0 0 0 0 0 0 0 0 0 0 0 0 0 0 0 0 0 127 0" result="hardAlpha"/>
<feOffset dy="3"/>
<feGaussianBlur stdDeviation="4"/>
<feComposite in2="hardAlpha" operator="out"/>
<feColorMatrix type="matrix" values="0 0 0 0 0 0 0 0 0 0 0 0 0 0 0 0 0 0 0.08 0"/>
<feBlend mode="normal" in2="BackgroundImageFix" result="effect1_dropShadow_164_1150"/>
<feBlend mode="normal" in="SourceGraphic" in2="effect1_dropShadow_164_1150" result="shape"/>
</filter>
</defs>
</svg>
