<svg width="198" height="64" viewBox="0 0 198 64" fill="none" xmlns="http://www.w3.org/2000/svg">
<path d="M45.0152 31.65C45.0514 38.9419 39.2018 44.8272 31.9432 44.8272C24.6847 44.8272 18.8713 39.016 18.8351 31.7983C18.799 24.5425 24.6485 18.6211 31.9432 18.6211C39.238 18.6211 44.9772 24.4322 45.0152 31.65ZM41.4971 32.6119C41.4971 26.7266 37.6825 19.3968 31.1293 19.3968C25.1676 19.3968 22.0565 25.5785 22.0565 30.9087C22.0565 36.8301 25.9454 44.0497 32.3882 44.0497C38.2757 44.0497 41.4971 38.0523 41.4971 32.6119Z" fill="#294037"/>
<path d="M32.0133 64C14.3598 64 0 49.6458 0 32.0009C0 14.356 14.3598 0 32.0133 0C49.6669 0 64.0248 14.356 64.0248 32.0009C64.0248 49.6458 49.6651 64.0018 32.0133 64.0018M32.0133 1.46634C15.1701 1.46634 1.46691 15.1642 1.46691 32.0009C1.46691 48.8376 15.1701 62.5355 32.0133 62.5355C48.8565 62.5355 62.5579 48.8376 62.5579 32.0009C62.5579 15.1642 48.8547 1.46634 32.0133 1.46634Z" fill="#294037"/>
<path d="M32.0134 57.4695C17.9647 57.4695 6.53516 46.0443 6.53516 32.0011C6.53516 17.9579 17.9629 6.53271 32.0134 6.53271C46.0639 6.53271 57.4916 17.9579 57.4916 32.0011C57.4916 46.0443 46.0621 57.4695 32.0134 57.4695ZM32.0134 7.50907C18.5037 7.50907 7.51189 18.4949 7.51189 32.0011C7.51189 45.5073 18.5019 56.4913 32.0134 56.4913C45.5249 56.4913 56.5149 45.5055 56.5149 32.0011C56.5149 18.4967 45.5213 7.50907 32.0134 7.50907Z" fill="#294037"/>
<path d="M18.5596 47.3658L44.2929 15.8404H18.5596V11.0942H45.2895V15.8404L19.5562 47.3658H45.2895V52.1119H18.5596V47.3658Z" fill="#294037"/>
<path d="M31.7872 3.10462C31.4906 3.4156 31.6588 3.8188 31.8071 4.15329C31.6172 4.12979 31.572 3.89112 31.4092 3.77179C31.1071 3.5494 30.7038 3.7067 30.6875 4.09544C31.0673 4.12436 31.4327 4.23285 31.7131 4.49863L31.9536 4.89098C32.0278 4.58 32.319 4.34856 32.603 4.22923C32.7802 4.1551 32.9684 4.15691 33.1221 4.10086C33.1583 4.0882 33.1673 4.11352 33.1637 4.05385C33.1474 3.6615 32.7061 3.5711 32.4293 3.78987C32.2883 3.90197 32.2376 4.09724 32.073 4.1551C32.0386 3.99238 32.196 3.86762 32.2177 3.72659C32.2629 3.44272 32.1761 3.19683 31.9536 3.01964L31.9138 3.00879C31.8795 3.04495 31.818 3.07207 31.7872 3.10462Z" fill="#294037"/>
<path d="M32.0618 60.7473C32.3584 60.4363 32.1902 60.0331 32.0419 59.6986C32.2318 59.7221 32.277 59.9608 32.4398 60.0801C32.7419 60.3025 33.1452 60.1452 33.1615 59.7565C32.7817 59.7276 32.4163 59.6191 32.1359 59.3533L31.8954 58.9609C31.8212 59.2719 31.53 59.5034 31.246 59.6227C31.0688 59.6968 30.8807 59.695 30.7269 59.7511C30.6907 59.7637 30.6817 59.7384 30.6853 59.7981C30.7016 60.1904 31.1429 60.2808 31.4197 60.062C31.5608 59.9499 31.6114 59.7547 31.776 59.6968C31.8104 59.8595 31.653 59.9843 31.6313 60.1253C31.5861 60.4092 31.6729 60.6551 31.8954 60.8323L31.9352 60.8431C31.9695 60.807 32.031 60.7799 32.0618 60.7473Z" fill="#294037"/>
<path d="M60.7568 31.7878C60.4457 31.4913 60.0423 31.6594 59.7077 31.8077C59.7312 31.6178 59.97 31.5726 60.0894 31.4099C60.3118 31.1079 60.1545 30.7047 59.7656 30.6885C59.7366 31.0682 59.6281 31.4334 59.3622 31.7136L58.9697 31.9541C59.2808 32.0283 59.5124 32.3194 59.6317 32.6032C59.7059 32.7804 59.7041 32.9684 59.7602 33.1221C59.7728 33.1583 59.7475 33.1673 59.8072 33.1637C60.1997 33.1474 60.2901 32.7063 60.0713 32.4296C59.9591 32.2886 59.7638 32.238 59.7059 32.0735C59.8687 32.0391 59.9935 32.1964 60.1346 32.2181C60.4185 32.2633 60.6645 32.1765 60.8418 31.9541L60.8527 31.9143C60.8165 31.88 60.7893 31.8167 60.7568 31.7878Z" fill="#294037"/>
<path d="M3.09293 32.0642C3.40404 32.3607 3.8074 32.1925 4.14202 32.0443C4.1185 32.2341 3.87794 32.2793 3.76037 32.4421C3.53789 32.744 3.69525 33.1472 4.08414 33.1635C4.11308 32.7838 4.2216 32.4186 4.48749 32.1383L4.87999 31.8978C4.56889 31.8237 4.33736 31.5326 4.21799 31.2487C4.14383 31.0715 4.14564 30.8835 4.08956 30.7298C4.0769 30.6937 4.10223 30.6846 4.04254 30.6882C3.65003 30.7045 3.5596 31.1457 3.77846 31.4223C3.8906 31.5633 4.08595 31.614 4.14383 31.7785C3.98104 31.8129 3.85623 31.6556 3.71515 31.6339C3.43117 31.5887 3.18518 31.6754 3.00792 31.8978L2.99707 31.9376C3.03325 31.972 3.06038 32.0352 3.09293 32.0642Z" fill="#294037"/>
<path d="M11.6335 52.4031C12.064 52.3922 12.2304 51.989 12.3625 51.6473C12.48 51.7992 12.3426 51.9999 12.3733 52.1988C12.4294 52.5694 12.8273 52.743 13.1113 52.4808C12.8635 52.1916 12.6808 51.8571 12.67 51.4701L12.7785 51.0235C12.5054 51.1917 12.1364 51.1483 11.8524 51.0326C11.6751 50.9603 11.5413 50.8247 11.3948 50.7578C11.3604 50.7415 11.3731 50.7162 11.3315 50.7614C11.0656 51.0489 11.3134 51.4249 11.6643 51.4665C11.8434 51.4882 12.017 51.3851 12.1744 51.4593C12.0857 51.5985 11.885 51.575 11.7692 51.66C11.5377 51.8281 11.4237 52.0632 11.4563 52.3452L11.4762 52.3796C11.525 52.3778 11.5901 52.4031 11.6335 52.4013" fill="#294037"/>
<path d="M52.2151 11.4486C51.7846 11.4595 51.6182 11.8627 51.4861 12.2044C51.3686 12.0525 51.506 11.8518 51.4753 11.6529C51.4192 11.2823 51.0213 11.1087 50.7373 11.3709C50.9851 11.6602 51.1678 11.9947 51.1786 12.3816L51.0701 12.8282C51.3432 12.66 51.7122 12.7034 51.9962 12.8191C52.1735 12.8915 52.3073 13.0271 52.4538 13.094C52.4882 13.1102 52.4755 13.1356 52.5171 13.0904C52.783 12.8029 52.5352 12.4268 52.1843 12.3852C52.0052 12.3635 51.8316 12.4666 51.6742 12.3924C51.7629 12.2532 51.9636 12.2767 52.0794 12.1917C52.3109 12.0236 52.4249 11.7885 52.3923 11.5065L52.3724 11.4721C52.3236 11.4739 52.2585 11.4486 52.2151 11.4504" fill="#294037"/>
<path d="M11.4409 11.6441C11.4518 12.0744 11.8551 12.2408 12.197 12.3728C12.045 12.4903 11.8443 12.3529 11.6453 12.3836C11.2745 12.4397 11.1009 12.8374 11.3631 13.1213C11.6525 12.8736 11.9871 12.691 12.3742 12.6801L12.821 12.7886C12.6528 12.5156 12.6962 12.1468 12.8119 11.8629C12.8843 11.6857 13.0199 11.5519 13.0869 11.4055C13.1032 11.3711 13.1285 11.3838 13.0833 11.3422C12.7957 11.0764 12.4176 11.3241 12.3778 11.6749C12.3561 11.8539 12.4592 12.0274 12.3851 12.1847C12.2458 12.0961 12.2693 11.8954 12.1843 11.7797C12.0161 11.5483 11.7809 11.4344 11.4988 11.4669L11.4644 11.4868C11.4662 11.5356 11.4409 11.6007 11.4427 11.6441" fill="#294037"/>
<path d="M52.4091 52.2077C52.3983 51.7773 51.9949 51.611 51.653 51.479C51.805 51.3615 52.0058 51.4989 52.2047 51.4682C52.5755 51.4121 52.7492 51.0143 52.4869 50.7305C52.1975 50.9782 51.8629 51.1608 51.4758 51.1716L51.029 51.0632C51.1972 51.3362 51.1538 51.705 51.0381 51.9889C50.9657 52.1661 50.8301 52.2999 50.7631 52.4463C50.7469 52.4807 50.7215 52.468 50.7668 52.5096C51.0543 52.7754 51.4324 52.5277 51.4722 52.1769C51.4939 51.9979 51.3908 51.8244 51.4649 51.667C51.6042 51.7556 51.5807 51.9563 51.6657 52.0721C51.8339 52.3035 52.0691 52.4174 52.3512 52.3849L52.3856 52.365C52.3838 52.3161 52.4091 52.2511 52.4073 52.2077" fill="#294037"/>
<path d="M17.9397 30.7061L18.3068 29.7967C16.3841 29.2778 12.1227 25.0089 13.8428 23.0526C14.6043 22.1865 16.5216 22.8049 17.2089 23.595C15.8505 18.5343 9.66999 19.5269 11.6054 25.2783C12.5369 28.0447 15.2645 29.8636 17.9379 30.7079" fill="#294037"/>
<path d="M17.2109 40.3703C14.9101 42.3447 12.4158 41.1659 13.8972 38.0578C14.6496 36.4776 16.7062 34.8196 18.307 34.1669L17.8331 33.2827C14.4525 34.0276 10.2399 38.2205 11.4264 41.8692C12.5641 45.3642 16.8835 43.1963 17.2109 40.3703Z" fill="#294037"/>
<path d="M46.0801 30.7061L45.7129 29.7967C47.6356 29.2778 51.8971 25.0089 50.1769 23.0526C49.4154 22.1865 47.4981 22.8049 46.8108 23.595C48.1692 18.5343 54.3497 19.5269 52.4144 25.2783C51.4829 28.0447 48.7552 29.8636 46.0819 30.7079" fill="#294037"/>
<path d="M46.809 40.3703C49.1098 42.3447 51.604 41.1659 50.1227 38.0578C49.3702 36.4776 47.3136 34.8196 45.7129 34.1669L46.1868 33.2827C49.5674 34.0276 53.78 38.2205 52.5934 41.8692C51.4557 45.3642 47.1364 43.1963 46.809 40.3703Z" fill="#294037"/>
<path d="M84.3719 12.3853C89.952 12.3853 94.6186 16.7662 94.6186 22.8793C94.6186 29.466 89.9845 33.7837 84.2779 33.7837C78.1606 33.7837 73.8105 29.0556 73.8105 23.2264C73.8105 17.8366 77.7193 12.3853 84.3719 12.3853ZM83.7407 13.1736C80.6513 13.1736 78.318 16.2617 78.318 22.5014C78.318 28.3938 80.7146 32.9954 84.8133 32.9954C87.9659 32.9954 90.1093 29.8132 90.1093 23.6983C90.1093 17.1115 87.6187 13.1718 83.7407 13.1718" fill="#294037"/>
<path d="M84.2772 33.9137C78.236 33.9137 73.6797 29.3194 73.6797 23.2262C73.6797 17.8328 77.6789 12.2549 84.3713 12.2549C90.1901 12.2549 94.7482 16.9215 94.7482 22.8791C94.7482 29.2724 90.3438 33.9137 84.2772 33.9137ZM84.3713 12.5152C77.5957 12.5152 73.9401 18.0335 73.9401 23.2262C73.9401 29.1711 78.3843 33.6533 84.2772 33.6533C90.1702 33.6533 94.4877 29.1223 94.4877 22.8791C94.4877 17.0661 90.0436 12.5152 84.3713 12.5152ZM84.8126 33.1272C80.8496 33.1272 78.1871 28.8565 78.1871 22.503C78.1871 16.6684 80.316 13.045 83.74 13.045C87.7483 13.045 90.2389 17.1294 90.2389 23.7017C90.2389 29.6051 88.2095 33.129 84.8126 33.129M83.74 13.3036C80.4752 13.3036 78.4476 16.8275 78.4476 22.5012C78.4476 28.701 81.0052 32.865 84.8126 32.865C88.0467 32.865 89.9785 29.4387 89.9785 23.6981C89.9785 17.2849 87.5873 13.3018 83.74 13.3018" fill="#294037"/>
<path d="M120.218 28.2057C119.965 29.3086 119.366 31.8308 119.051 33.3116H102.626L102.405 33.0278C106.535 26.6923 110.666 20.0748 114.575 13.7719H108.805C106.471 13.7719 106.03 14.1498 105.274 15.41C104.863 16.0717 104.549 16.766 104.201 17.5851H103.633C103.823 16.1043 104.138 13.4573 104.232 12.1338H104.643C105.178 12.7955 105.462 12.8263 106.598 12.8263H119.399L119.493 13.1101C115.488 19.4438 111.011 26.7556 107.575 32.3353C108.363 32.366 111.422 32.366 113.439 32.366C115.456 32.366 116.561 32.178 117.505 31.3571C118.199 30.7586 119.08 29.4984 119.681 28.0791L120.216 28.2057H120.218Z" fill="#294037"/>
<path d="M119.158 33.4421H102.563L102.246 33.0353L102.297 32.9575C106.542 26.4467 110.733 19.7207 114.341 13.9024H108.806C106.453 13.9024 106.09 14.3074 105.388 15.4772C104.994 16.1154 104.688 16.7754 104.324 17.636L104.29 17.7156H103.489L103.507 17.5691C103.684 16.186 104.008 13.4847 104.105 12.125L104.115 12.0039H104.708L104.746 12.0527C105.25 12.6765 105.5 12.6982 106.6 12.6982H119.494L119.639 13.1303L119.607 13.1828C116.28 18.446 112.686 24.2879 109.516 29.4409L107.808 32.2144C108.839 32.2397 111.581 32.2397 113.442 32.2397C115.304 32.2397 116.472 32.0879 117.423 31.2634C118.154 30.6324 119.015 29.3342 119.565 28.0342L119.608 27.9329L120.377 28.1137L120.348 28.2403C120.278 28.5495 120.18 28.9726 120.068 29.4535C119.789 30.6468 119.409 32.2813 119.183 33.3445L119.162 33.4475L119.158 33.4421ZM102.689 33.1817H118.946C119.176 32.115 119.541 30.5456 119.811 29.3884C119.909 28.9708 119.995 28.5965 120.064 28.3036L119.76 28.2313C119.196 29.5313 118.333 30.8186 117.593 31.455C116.579 32.3338 115.399 32.4947 113.441 32.4947C111.482 32.4947 108.362 32.4947 107.571 32.4639L107.349 32.4549L109.291 29.3016C112.453 24.1649 116.032 18.343 119.352 13.0924L119.306 12.9568H106.6C105.496 12.9568 105.135 12.926 104.583 12.2625H104.355C104.252 13.6131 103.957 16.0739 103.784 17.4534H104.116C104.471 16.6217 104.773 15.9708 105.164 15.3398C105.934 14.0561 106.388 13.6402 108.805 13.6402H114.808L114.685 13.8391C111.062 19.6809 106.842 26.4576 102.564 33.0208L102.689 33.1817Z" fill="#294037"/>
<path d="M139.197 21.9026C142.603 22.4378 145.218 24.1085 145.218 27.1659C145.218 29.4658 144.052 31.0424 142.413 31.988C140.774 32.9336 138.472 33.3115 136.075 33.3115H128.415V32.8071C130.654 32.3966 130.938 32.1453 130.938 29.435V16.5761C130.938 13.8351 130.624 13.7718 128.415 13.3306V12.8262H137.242C139.859 12.8262 141.214 13.2041 142.35 13.9598C143.453 14.7156 144.084 15.8511 144.084 17.3011C144.084 20.1687 141.436 21.4289 139.197 21.9026ZM136.171 21.7761C139.009 21.7761 140.049 20.5791 140.049 17.9629C140.049 14.6849 138.378 13.5819 136.549 13.5819C136.014 13.5819 135.413 13.6452 135.162 13.8658C134.878 14.0864 134.847 14.5583 134.847 15.4099V21.7761H136.171ZM134.847 29.6249C134.847 31.8 135.699 32.5232 137.464 32.5232C139.42 32.5232 140.87 30.7911 140.87 27.4172C140.87 24.2658 139.64 22.5319 136.11 22.5319H134.849V29.6231L134.847 29.6249Z" fill="#294037"/>
<path d="M136.075 33.4419H128.283V32.6987L128.39 32.6789C130.532 32.2865 130.806 32.1328 130.806 29.4352V16.5762C130.806 13.9419 130.577 13.8949 128.388 13.4573L128.283 13.4356V12.6943H137.242C139.72 12.6943 141.172 13.018 142.422 13.8515C143.594 14.6561 144.215 15.8476 144.215 17.3013C144.215 20.1707 141.695 21.3821 139.832 21.8847C143.35 22.6007 145.351 24.5028 145.351 27.1661C145.351 29.8293 143.79 31.3463 142.48 32.1003C140.959 32.9772 138.745 33.4419 136.077 33.4419M128.545 33.1815H136.075C138.696 33.1815 140.865 32.7295 142.348 31.8761C143.598 31.1547 145.088 29.7516 145.088 27.1661C145.088 24.5805 142.934 22.6224 139.177 22.0312L138.479 21.9209L139.172 21.7744C140.959 21.3965 143.956 20.3135 143.956 17.3013C143.956 15.938 143.376 14.8206 142.278 14.0685C141.078 13.2693 139.666 12.9565 137.244 12.9565H128.547V13.2241C130.682 13.6508 131.071 13.7737 131.071 16.5781V29.437C131.071 32.2069 130.718 32.5143 128.547 32.9175V33.1833L128.545 33.1815ZM137.463 32.6535C135.511 32.6535 134.715 31.7748 134.715 29.6232V22.4018H136.106C139.488 22.4018 140.997 23.9477 140.997 27.4174C140.997 30.6466 139.642 32.6535 137.461 32.6535M134.977 22.664V29.625C134.977 31.6175 135.674 32.3932 137.464 32.3932C139.485 32.3932 140.738 30.4875 140.738 27.4174C140.738 24.0851 139.353 22.6622 136.108 22.6622H134.977V22.664ZM136.171 21.9082H134.717V15.4119C134.717 14.5639 134.742 14.0305 135.082 13.7647C135.375 13.508 136.043 13.4537 136.549 13.4537C137.642 13.4537 140.179 13.8931 140.179 17.9648C140.179 20.7294 138.98 21.9082 136.171 21.9082ZM134.977 21.6461H136.171C138.834 21.6461 139.919 20.5793 139.919 17.963C139.919 14.2655 137.808 13.7123 136.549 13.7123C135.905 13.7123 135.431 13.8045 135.247 13.9636C135.015 14.1444 134.976 14.5548 134.976 15.41V21.6461H134.977Z" fill="#294037"/>
<path d="M169.399 28.363C169.242 29.4659 168.674 32.5541 168.486 33.3117H153.101V32.8072C155.812 32.4293 156.033 32.272 156.033 29.4659V16.6703C156.033 13.8334 155.875 13.5821 153.636 13.329V12.8245H163.188C166.277 12.8245 167.507 12.7938 167.759 12.7612C167.791 13.9582 167.916 15.976 168.074 17.3302L167.569 17.4242C167.316 16.6359 166.907 15.4697 166.212 14.6507C165.644 13.9582 164.952 13.7683 163.09 13.7683H160.726C160.064 13.7683 159.938 13.8949 159.938 14.5241V22.0565H162.996C165.487 22.0565 165.581 21.364 166.022 19.4095H166.527V25.6491H166.022C165.581 23.7904 165.487 23.0021 162.996 23.0021H159.938V29.7154C159.938 31.9213 160.41 32.3317 162.365 32.3624H164.224C166.086 32.3624 166.525 32.1093 167.314 31.2595C167.882 30.6285 168.386 29.5581 168.922 28.2654L169.394 28.3594L169.399 28.363Z" fill="#294037"/>
<path d="M168.588 33.442H152.971V32.6934L153.083 32.6772C155.704 32.3119 155.903 32.2179 155.903 29.466V16.6704C155.903 13.8805 155.774 13.7015 153.622 13.4593L153.506 13.4466V12.6963H163.188C166.853 12.6963 167.595 12.6529 167.745 12.6348L167.888 12.6167L167.891 12.7595C167.922 13.9402 168.049 15.967 168.206 17.3177L168.22 17.4388L167.484 17.5762L167.45 17.4677C167.173 16.6017 166.772 15.5096 166.119 14.7394C165.581 14.083 164.932 13.9022 163.098 13.9022H160.734C160.144 13.9022 160.076 13.9673 160.076 14.5278V21.93H163.004C165.33 21.93 165.457 21.3713 165.873 19.5235L165.927 19.283H166.665V25.783H165.927L165.858 25.4901C165.455 23.7761 165.303 23.136 163.004 23.136H160.076V29.7192C160.076 31.9069 160.537 32.2071 162.374 32.236H164.232C166.088 32.236 166.484 31.9774 167.226 31.1747C167.808 30.5274 168.331 29.372 168.808 28.2203L168.85 28.1208L169.548 28.2601L169.53 28.383C169.365 29.5402 168.799 32.6012 168.613 33.3443L168.588 33.4438V33.442ZM153.231 33.1816H168.383C168.577 32.3445 169.08 29.627 169.253 28.468L169.007 28.4192C168.532 29.5601 168.009 30.6937 167.417 31.3518C166.582 32.2541 166.091 32.4982 164.23 32.4982H162.371C160.291 32.4656 159.813 31.9449 159.813 29.721V22.8775H163.002C165.507 22.8775 165.697 23.6784 166.11 25.4323L166.131 25.5245H166.403V19.5452H166.133L166.124 19.5832C165.708 21.4292 165.536 22.1922 163.002 22.1922H159.813V14.5296C159.813 13.8245 160.003 13.6437 160.732 13.6437H163.096C165.004 13.6437 165.728 13.8516 166.318 14.573C166.971 15.3451 167.378 16.41 167.661 17.2797L167.935 17.2291C167.788 15.9255 167.672 14.0704 167.636 12.906C167.101 12.9385 165.514 12.9584 163.19 12.9584H153.768V13.217C155.961 13.4737 156.165 13.8046 156.165 16.674V29.4697C156.165 32.2486 155.944 32.5397 153.233 32.9231V33.1834L153.231 33.1816Z" fill="#294037"/>
<path d="M177.344 12.8262H186.266V13.3306C183.966 13.7718 183.712 13.9616 183.712 16.7334V22.5011C184.09 22.3746 184.628 21.9659 185.194 21.4615C187.431 19.4762 189.607 17.0805 191.121 15.3159C192.13 14.1497 192.004 13.9291 190.208 13.4879L189.546 13.3306V12.8262H196.891V13.3306C194.494 13.7085 193.802 14.0557 192.384 15.4732C190.555 17.3011 188.759 19.0658 186.93 21.0203C189.106 23.9837 191.722 27.4172 194.087 30.2234C195.726 32.1779 196.325 32.5558 197.871 32.8071V33.3115H191.566C189.707 30.8851 186.679 26.8513 184.977 24.5189C184.284 23.5733 184 23.1954 183.716 23.0996V29.4025C183.716 32.1761 183.969 32.3334 186.27 32.8053V33.3097H177.347V32.8053C179.554 32.3966 179.871 32.2068 179.871 29.4025V16.7334C179.871 13.9598 179.587 13.7392 177.347 13.3306V12.8262H177.344Z" fill="#294037"/>
<path d="M198 33.442H191.499L191.46 33.3914C189.521 30.8619 186.504 26.8353 184.868 24.5951C184.346 23.8828 184.058 23.4977 183.843 23.3241V29.4046C183.843 32.1004 184.051 32.2197 186.292 32.6808L186.395 32.7025V33.4438H177.212V32.7007L177.319 32.6808C179.46 32.283 179.735 32.1275 179.735 29.4046V16.7355C179.735 14.0071 179.462 13.8516 177.319 13.4593L177.212 13.4394V12.6963H186.395V13.4376L186.29 13.4575C184.049 13.8878 183.841 14.0053 183.841 16.7337V22.3061C184.15 22.1543 184.574 21.8379 185.107 21.3641C187.372 19.3554 189.573 16.9199 191.022 15.2312C191.422 14.7683 191.677 14.4194 191.611 14.2205C191.539 13.9927 191.007 13.8191 190.175 13.6148L189.414 13.434V12.6963H197.02V13.443L196.909 13.4611C194.556 13.8318 193.894 14.1464 192.472 15.5675L191.555 16.4824C190.098 17.9361 188.591 19.4367 187.095 21.0333C188.945 23.5501 191.655 27.1445 194.182 30.1423C195.842 32.1203 196.43 32.4439 197.886 32.6826L197.996 32.7007V33.4456L198 33.442ZM191.628 33.1816H197.738V32.9177C196.204 32.6537 195.582 32.2107 193.985 30.3068C191.423 27.2693 188.676 23.6224 186.822 21.0984L186.759 21.0116L186.833 20.932C188.356 19.3048 189.89 17.7751 191.373 16.2961L192.29 15.3813C193.722 13.9475 194.449 13.5913 196.761 13.2188V12.9567H189.676V13.2279L190.239 13.3617C191.25 13.6094 191.751 13.7902 191.863 14.1409C191.964 14.4591 191.716 14.8298 191.221 15.4012C189.768 17.0953 187.558 19.5398 185.283 21.5594C184.608 22.1597 184.109 22.5086 183.756 22.6262L183.584 22.684V16.7355C183.584 13.9258 183.875 13.6636 186.138 13.2242V12.9585H177.476V13.2242C179.679 13.6329 179.997 13.9185 179.997 16.7355V29.4046C179.997 32.2161 179.677 32.5 177.476 32.9159V33.1816H186.138V32.914C183.875 32.4439 183.584 32.1818 183.584 29.4046V22.9209L183.756 22.9787C184.071 23.0836 184.344 23.4362 185.08 24.4433C186.703 26.6654 189.691 30.6522 191.628 33.1834" fill="#294037"/>
<path d="M99.506 46.1852C100.135 45.8886 100.454 45.3968 100.454 44.7206C100.454 44.1222 100.244 43.6304 99.8315 43.2615C99.4155 42.8891 98.7933 42.6992 97.9848 42.6992H94.6006V50.228H98.0662C98.8747 50.228 99.5186 50.0219 99.9817 49.6169C100.437 49.2263 100.667 48.6839 100.667 48.0041C100.667 47.5358 100.533 47.1254 100.267 46.7854C100.065 46.5233 99.808 46.3226 99.5041 46.1852M96.3352 46.9735H97.8636C98.1801 46.9735 98.4316 47.053 98.6287 47.2176C98.8186 47.3749 98.9127 47.5955 98.9127 47.8902C98.9127 48.1523 98.8277 48.3548 98.6522 48.5085C98.475 48.6658 98.2235 48.7454 97.9052 48.7454H96.337V46.9717L96.3352 46.9735ZM98.5057 45.424C98.3321 45.5578 98.0969 45.6247 97.8021 45.6247H96.3352V44.1565H97.8328C98.1259 44.1565 98.3574 44.2216 98.5184 44.3518C98.6739 44.4765 98.7499 44.6483 98.7499 44.8797C98.7499 45.1112 98.6703 45.2956 98.5057 45.4222" fill="#294037"/>
<path d="M106.999 44.9268C106.885 45.16 106.758 45.4276 106.617 45.7313L106.245 44.9249L105.111 42.6992H103.206L105.715 47.3261V50.2298H107.449V47.3261L109.958 42.6992H108.113L106.999 44.9286V44.9268Z" fill="#294037"/>
<path d="M123.546 42.6973H121.35L118.74 45.4021V42.6973H117.004V50.2278H118.74V47.5067L119.334 46.9046L121.622 50.2278H123.669L120.558 45.7493L123.546 42.6973Z" fill="#294037"/>
<path d="M128.493 42.6973L125.87 50.226H127.645L128.122 48.6801H130.555L131.043 50.226H132.859L130.204 42.6973H128.493ZM129.339 44.6898L129.518 45.3678L130.117 47.2934H128.549L129.148 45.3678C129.204 45.1924 129.267 44.9682 129.339 44.6898Z" fill="#294037"/>
<path d="M140.948 46.4962C140.792 46.3443 140.573 46.2033 140.3 46.0785C140.034 45.9574 139.783 45.8633 139.555 45.7982C139.329 45.7332 139.036 45.6626 138.681 45.5885C138.106 45.4638 137.703 45.3372 137.48 45.2161C137.287 45.1094 137.196 44.9521 137.196 44.7206C137.196 44.5073 137.294 44.3409 137.493 44.209C137.708 44.0679 138.005 43.9956 138.378 43.9956C138.75 43.9956 139.03 44.0824 139.26 44.2542C139.486 44.4223 139.615 44.6592 139.651 44.9774L139.665 45.0931H141.335L141.324 44.9539C141.266 44.1945 140.973 43.5978 140.452 43.1838C139.937 42.7734 139.24 42.5654 138.388 42.5654C137.536 42.5654 136.826 42.7643 136.292 43.1549C135.748 43.5544 135.471 44.133 135.471 44.8707C135.471 45.1781 135.521 45.4565 135.623 45.6988C135.724 45.9411 135.851 46.14 136.001 46.29C136.149 46.4383 136.354 46.5757 136.607 46.6969C136.853 46.8144 137.082 46.903 137.29 46.959C137.491 47.0133 137.748 47.0784 138.063 47.1525C138.32 47.214 138.495 47.2555 138.591 47.279C138.685 47.3026 138.822 47.3387 139.005 47.3893C139.215 47.4472 139.307 47.4906 139.345 47.5159C139.41 47.5593 139.49 47.6154 139.582 47.6841C139.656 47.7401 139.703 47.798 139.725 47.8649C139.75 47.9426 139.765 48.033 139.765 48.1343C139.765 48.4055 139.656 48.5989 139.432 48.7273C139.19 48.8683 138.87 48.9389 138.481 48.9389C137.989 48.9389 137.62 48.8521 137.383 48.6785C137.153 48.5122 137.016 48.2283 136.972 47.8341L136.959 47.7184H135.265L135.27 47.854C135.299 48.664 135.603 49.2968 136.174 49.7362C136.737 50.1683 137.535 50.3889 138.542 50.3889C139.409 50.3889 140.123 50.1738 140.666 49.7507C141.219 49.3204 141.499 48.7183 141.499 47.9607C141.499 47.6389 141.447 47.3514 141.342 47.1019C141.237 46.8542 141.105 46.648 140.948 46.4943" fill="#294037"/>
<path d="M146.412 42.6973H144.678V50.226H146.412V42.6973Z" fill="#294037"/>
<path d="M153.855 46.4439C153.734 46.8797 153.622 47.3425 153.522 47.8235C153.49 47.6861 153.453 47.5269 153.412 47.3479C153.334 47.0171 153.256 46.7169 153.182 46.4421L152.128 42.6976H149.823V50.2264H151.437V45.9286C151.437 45.8726 151.437 45.8147 151.437 45.7532L152.705 50.2264H154.314L155.593 45.8418C155.602 45.8111 155.611 45.7804 155.62 45.7478L155.613 50.2246H157.246V42.6958H154.911L153.857 46.4403L153.855 46.4439Z" fill="#294037"/>
<path d="M163.968 42.5565C162.878 42.5565 161.988 42.9308 161.324 43.6666C160.664 44.3989 160.329 45.3463 160.329 46.4782C160.329 47.61 160.664 48.5556 161.324 49.2843C161.988 50.0184 162.878 50.389 163.968 50.389C165.059 50.389 165.947 50.0166 166.607 49.2825C167.264 48.552 167.597 47.6082 167.597 46.4764C167.597 45.3445 167.264 44.3989 166.607 43.6648C165.947 42.9271 165.059 42.5547 163.968 42.5547M162.094 46.4782C162.094 45.7513 162.263 45.1511 162.594 44.6936C162.919 44.2434 163.371 44.0265 163.977 44.0265C164.583 44.0265 165.03 44.2434 165.345 44.6936C165.667 45.1511 165.83 45.7513 165.83 46.4782C165.83 47.205 165.667 47.8053 165.345 48.2573C165.028 48.7021 164.582 48.9191 163.976 48.9191C163.37 48.9191 162.917 48.7003 162.592 48.2501C162.261 47.7944 162.093 47.1978 162.093 46.4764" fill="#294037"/>
<path d="M174.569 42.6973L173.269 46.9987C173.205 47.2066 173.137 47.4489 173.064 47.7237L172.867 46.9987L171.558 42.6973H169.734L172.274 50.226H173.804L176.344 42.6973H174.571H174.569Z" fill="#294037"/>
<path d="M197.95 47.0239H179.735V47.2843H197.95V47.0239Z" fill="#294037"/>
<path d="M90.8344 47.0239H72.6201V47.2843H90.8344V47.0239Z" fill="#294037"/>
</svg>
